<svg width="64" height="64" viewBox="0 0 64 64" fill="none" xmlns="http://www.w3.org/2000/svg">
<g id="&#240;&#159;&#166;&#134; icon &#34;cog&#34;">
<g id="Group">
<path id="Vector" d="M26.4153 6.39103C27.8367 0.536325 36.1633 0.536325 37.5847 6.39103C38.5027 10.1731 42.8357 11.9679 46.1593 9.94283C51.3043 6.80796 57.192 12.6957 54.0573 17.8406C52.032 21.1642 53.827 25.4973 57.609 26.4153C63.4637 27.8367 63.4637 36.1633 57.609 37.5847C53.827 38.5027 52.032 42.8357 54.0573 46.1593C57.192 51.3043 51.3043 57.192 46.1593 54.0573C42.8357 52.032 38.5027 53.827 37.5847 57.609C36.1633 63.4637 27.8367 63.4637 26.4153 57.609C25.4973 53.827 21.1642 52.032 17.8406 54.0573C12.6957 57.192 6.80796 51.3043 9.94283 46.1593C11.9679 42.8357 10.1731 38.5027 6.39103 37.5847C0.536325 36.1633 0.536325 27.8367 6.39103 26.4153C10.1731 25.4973 11.9679 21.1642 9.94283 17.8406C6.80796 12.6957 12.6957 6.80796 17.8406 9.94283C21.1642 11.9679 25.4973 10.1731 26.4153 6.39103Z" stroke="#075985" stroke-width="3" stroke-linecap="round" stroke-linejoin="round"/>
<path id="Vector_2" d="M42 32C42 37.523 37.523 42 32 42C26.477 42 22 37.523 22 32C22 26.477 26.477 22 32 22C37.523 22 42 26.477 42 32Z" stroke="#075985" stroke-width="3" stroke-linecap="round" stroke-linejoin="round"/>
</g>
</g>
</svg>
