<svg width="52" height="44" viewBox="0 0 52 44" fill="none" xmlns="http://www.w3.org/2000/svg">
<g id="&#240;&#159;&#166;&#134; icon &#34;phone&#34;">
<path id="Vector" d="M2 6.45632C2 3.99516 4.38781 2 7.33333 2H16.078C17.2258 2 18.2448 2.6137 18.6078 3.52355L22.6019 13.5357C23.0216 14.5876 22.4517 15.7373 21.2648 16.2332L15.2454 18.748C18.1847 24.1952 23.4368 28.5837 29.956 31.0396L32.9656 26.01C33.5592 25.0182 34.9352 24.5421 36.1941 24.8928L48.1765 28.2301C49.2656 28.5334 50 29.3848 50 30.344V37.6506C50 40.1118 47.6123 42.1069 44.6667 42.1069H42C19.9086 42.1069 2 27.1432 2 8.68448V6.45632Z" stroke="#EA580C" stroke-width="3" stroke-linecap="round" stroke-linejoin="round"/>
</g>
</svg>
