<svg width="54" height="54" viewBox="0 0 54 54" fill="none" xmlns="http://www.w3.org/2000/svg">
<g id="&#240;&#159;&#166;&#134; icon &#34;users&#34;">
<path id="Vector" d="M27 5.76161C29.0358 3.45486 32.0147 2 35.3333 2C41.4697 2 46.4444 6.97461 46.4444 13.1111C46.4444 19.2476 41.4697 24.2222 35.3333 24.2222C32.0147 24.2222 29.0358 22.7672 27 20.4606M35.3333 52H2V49.2222C2 40.0175 9.46192 32.5556 18.6667 32.5556C27.8714 32.5556 35.3333 40.0175 35.3333 49.2222V52ZM35.3333 52H52V49.2222C52 40.0175 44.5381 32.5556 35.3333 32.5556C32.2975 32.5556 29.4514 33.3672 27 34.7853M29.7778 13.1111C29.7778 19.2476 24.8031 24.2222 18.6667 24.2222C12.5302 24.2222 7.55556 19.2476 7.55556 13.1111C7.55556 6.97461 12.5302 2 18.6667 2C24.8031 2 29.7778 6.97461 29.7778 13.1111Z" stroke="#075985" stroke-width="3" stroke-linecap="round" stroke-linejoin="round"/>
</g>
</svg>
