<svg width="19" height="17" viewBox="0 0 19 17" fill="none" xmlns="http://www.w3.org/2000/svg">
<path fill-rule="evenodd" clip-rule="evenodd" d="M0.828247 2.02711C0.828247 1.31703 1.40389 0.741394 2.11396 0.741394H17.5425C18.2526 0.741394 18.8282 1.31703 18.8282 2.02711C18.8282 2.73718 18.2526 3.31282 17.5425 3.31282H2.11396C1.40389 3.31282 0.828247 2.73718 0.828247 2.02711Z" fill="#CBD5E1"/>
<path fill-rule="evenodd" clip-rule="evenodd" d="M0.828247 8.4557C0.828247 7.74562 1.40389 7.16998 2.11396 7.16998H17.5425C18.2526 7.16998 18.8282 7.74562 18.8282 8.4557C18.8282 9.1658 18.2526 9.74141 17.5425 9.74141H2.11396C1.40389 9.74141 0.828247 9.1658 0.828247 8.4557Z" fill="#CBD5E1"/>
<path fill-rule="evenodd" clip-rule="evenodd" d="M0.828247 14.8842C0.828247 14.1741 1.40389 13.5985 2.11396 13.5985H17.5425C18.2526 13.5985 18.8282 14.1741 18.8282 14.8842C18.8282 15.5943 18.2526 16.1699 17.5425 16.1699H2.11396C1.40389 16.1699 0.828247 15.5943 0.828247 14.8842Z" fill="#CBD5E1"/>
</svg>
