<svg width="54" height="54" viewBox="0 0 54 54" fill="none" xmlns="http://www.w3.org/2000/svg">
<g id="&#240;&#159;&#166;&#134; icon &#34;light bulb&#34;">
<path id="Vector" d="M20.5096 40.8889H33.49M26.9997 2V4.77778M44.6775 9.32233L42.7133 11.2865M52 26.9997H49.2222M4.77778 26.9997H2M11.2864 11.2865L9.32219 9.32233M17.1789 36.8211C11.755 31.3969 11.755 22.6031 17.1789 17.1791C22.6028 11.7552 31.3969 11.7552 36.8208 17.1791C42.2447 22.6031 42.2447 31.3969 36.8208 36.8211L35.3011 38.3408C33.5431 40.0986 32.5553 42.4831 32.5553 44.9694V46.4444C32.5553 49.5128 30.0681 52 26.9997 52C23.9317 52 21.4443 49.5128 21.4443 46.4444V44.9694C21.4443 42.4831 20.4567 40.0986 18.6986 38.3408L17.1789 36.8211Z" stroke="#EA580C" stroke-width="3" stroke-linecap="round" stroke-linejoin="round"/>
</g>
</svg>
