<svg width="64" height="64" viewBox="0 0 64 64" fill="none" xmlns="http://www.w3.org/2000/svg">
<path d="M2.1831 28.6667H8.66667C12.3486 28.6667 15.3333 31.6513 15.3333 35.3333V38.6667C15.3333 42.3487 18.3181 45.3333 22 45.3333C25.682 45.3333 28.6667 48.318 28.6667 52V61.817M18.6667 5.1184V10.3333C18.6667 14.9357 22.3976 18.6667 27 18.6667H28.6667C32.3487 18.6667 35.3333 21.6514 35.3333 25.3333C35.3333 29.0153 38.318 32 42 32C45.682 32 48.6667 29.0153 48.6667 25.3333C48.6667 21.6514 51.6513 18.6667 55.3333 18.6667H58.8817M42 60.293V52C42 48.318 44.9847 45.3333 48.6667 45.3333H58.8817M62 32C62 48.5687 48.5687 62 32 62C15.4315 62 2 48.5687 2 32C2 15.4315 15.4315 2 32 2C48.5687 2 62 15.4315 62 32Z" stroke="#075985" stroke-width="3" stroke-linecap="round" stroke-linejoin="round"/>
</svg>
