<?xml version="1.0" encoding="UTF-8" standalone="no"?>
<!-- Created with Inkscape (http://www.inkscape.org/) -->

<svg
   width="64mm"
   height="64mm"
   viewBox="0 0 64 64"
   version="1.1"
   id="svg1"
   xml:space="preserve"
   inkscape:version="1.3 (0e150ed6c4, 2023-07-21)"
   sodipodi:docname="letbefoundtekstterazdobre.svg"
   inkscape:export-filename="letbefoundtekst123.svg"
   inkscape:export-xdpi="25.4"
   inkscape:export-ydpi="25.4"
   xmlns:inkscape="http://www.inkscape.org/namespaces/inkscape"
   xmlns:sodipodi="http://sodipodi.sourceforge.net/DTD/sodipodi-0.dtd"
   xmlns:xlink="http://www.w3.org/1999/xlink"
   xmlns="http://www.w3.org/2000/svg"
   xmlns:svg="http://www.w3.org/2000/svg"><sodipodi:namedview
     id="namedview1"
     pagecolor="#ffffff"
     bordercolor="#000000"
     borderopacity="0.25"
     inkscape:showpageshadow="2"
     inkscape:pageopacity="0.0"
     inkscape:pagecheckerboard="0"
     inkscape:deskcolor="#d1d1d1"
     inkscape:document-units="mm"
     inkscape:zoom="2"
     inkscape:cx="146.5"
     inkscape:cy="131.25"
     inkscape:window-width="1920"
     inkscape:window-height="1017"
     inkscape:window-x="-8"
     inkscape:window-y="-8"
     inkscape:window-maximized="1"
     inkscape:current-layer="layer3"
     showguides="true" /><defs
     id="defs1"><linearGradient
       id="linearGradient51"
       inkscape:collect="always"><stop
         style="stop-color:#3a4489;stop-opacity:1;"
         offset="0"
         id="stop51" /><stop
         style="stop-color:#07b9cd;stop-opacity:1"
         offset="1"
         id="stop52" /></linearGradient><linearGradient
       id="linearGradient49"
       inkscape:collect="always"><stop
         style="stop-color:#f15232;stop-opacity:1;"
         offset="0.60294116"
         id="stop49" /><stop
         style="stop-color:#f68c3f;stop-opacity:1;"
         offset="1"
         id="stop50" /></linearGradient><linearGradient
       id="linearGradient47"
       inkscape:collect="always"><stop
         style="stop-color:#f36d38;stop-opacity:1;"
         offset="0"
         id="stop47" /><stop
         style="stop-color:#f89a43;stop-opacity:1;"
         offset="1"
         id="stop48" /></linearGradient><linearGradient
       id="linearGradient45"
       inkscape:collect="always"><stop
         style="stop-color:#39337a;stop-opacity:1;"
         offset="0"
         id="stop45" /><stop
         style="stop-color:#2e6fac;stop-opacity:0.98823529;"
         offset="0.36274511"
         id="stop46" /></linearGradient><linearGradient
       id="linearGradient43"
       inkscape:collect="always"><stop
         style="stop-color:#00a2c6;stop-opacity:1;"
         offset="0"
         id="stop43" /><stop
         style="stop-color:#00dcce;stop-opacity:1;"
         offset="1"
         id="stop44" /></linearGradient><linearGradient
       id="linearGradient41"
       inkscape:collect="always"><stop
         style="stop-color:#ccac9a;stop-opacity:0.99607843;"
         offset="0"
         id="stop41" /><stop
         style="stop-color:#0a8c9f;stop-opacity:1;"
         offset="1"
         id="stop42" /></linearGradient><linearGradient
       id="linearGradient39"
       inkscape:collect="always"><stop
         style="stop-color:#e32468;stop-opacity:1;"
         offset="0"
         id="stop39" /><stop
         style="stop-color:#b8226b;stop-opacity:1;"
         offset="1"
         id="stop40" /></linearGradient><linearGradient
       id="linearGradient37"
       inkscape:collect="always"><stop
         style="stop-color:#5abaab;stop-opacity:1;"
         offset="0"
         id="stop37" /><stop
         style="stop-color:#05a3c4;stop-opacity:1;"
         offset="0.76960784"
         id="stop38" /></linearGradient><linearGradient
       id="linearGradient35"
       inkscape:collect="always"><stop
         style="stop-color:#88337e;stop-opacity:1;"
         offset="0"
         id="stop35" /><stop
         style="stop-color:#675c9b;stop-opacity:1;"
         offset="0.65196079"
         id="stop36" /></linearGradient><linearGradient
       id="linearGradient33"
       inkscape:collect="always"><stop
         style="stop-color:#402a79;stop-opacity:1;"
         offset="0"
         id="stop33" /><stop
         style="stop-color:#05c5d5;stop-opacity:1;"
         offset="1"
         id="stop34" /></linearGradient><linearGradient
       id="linearGradient31"
       inkscape:collect="always"><stop
         style="stop-color:#e64b39;stop-opacity:1;"
         offset="0"
         id="stop31" /><stop
         style="stop-color:#f1773d;stop-opacity:1;"
         offset="0.52614379"
         id="stop32" /></linearGradient><linearGradient
       id="linearGradient29"
       inkscape:collect="always"><stop
         style="stop-color:#08b4d0;stop-opacity:1;"
         offset="0.47712418"
         id="stop29" /><stop
         style="stop-color:#394488;stop-opacity:1;"
         offset="1"
         id="stop30" /></linearGradient><linearGradient
       id="linearGradient24"
       inkscape:collect="always"><stop
         style="stop-color:#ee363a;stop-opacity:1;"
         offset="0"
         id="stop24" /><stop
         style="stop-color:#f67344;stop-opacity:1;"
         offset="1"
         id="stop25" /></linearGradient><linearGradient
       id="linearGradient22"
       inkscape:collect="always"><stop
         style="stop-color:#da4ba6;stop-opacity:1;"
         offset="0.06164384"
         id="stop22" /><stop
         style="stop-color:#4d468f;stop-opacity:1;"
         offset="1"
         id="stop23" /></linearGradient><linearGradient
       id="linearGradient20"
       inkscape:collect="always"><stop
         style="stop-color:#9f2374;stop-opacity:1;"
         offset="0"
         id="stop20" /><stop
         style="stop-color:#8c4b91;stop-opacity:1;"
         offset="1"
         id="stop21" /></linearGradient><linearGradient
       id="linearGradient18"
       inkscape:collect="always"><stop
         style="stop-color:#f69748;stop-opacity:1;"
         offset="0"
         id="stop18" /><stop
         style="stop-color:#f25b33;stop-opacity:1;"
         offset="1"
         id="stop19" /></linearGradient><linearGradient
       inkscape:collect="always"
       xlink:href="#linearGradient18"
       id="linearGradient19"
       x1="21.453228"
       y1="34.142097"
       x2="32.299999"
       y2="39.053173"
       gradientUnits="userSpaceOnUse"
       gradientTransform="translate(0.18470345,0.35009151)" /><linearGradient
       inkscape:collect="always"
       xlink:href="#linearGradient20"
       id="linearGradient21"
       x1="32.319569"
       y1="39.007988"
       x2="43.030396"
       y2="33.956593"
       gradientUnits="userSpaceOnUse"
       gradientTransform="translate(0.13487376,0.39686388)" /><linearGradient
       inkscape:collect="always"
       xlink:href="#linearGradient22"
       id="linearGradient23"
       x1="32.45393"
       y1="27.295435"
       x2="43.164757"
       y2="27.248663"
       gradientUnits="userSpaceOnUse"
       gradientTransform="translate(6.9584275e-4)" /><linearGradient
       inkscape:collect="always"
       xlink:href="#linearGradient24"
       id="linearGradient25"
       x1="32.430542"
       y1="27.318821"
       x2="21.649559"
       y2="27.295435"
       gradientUnits="userSpaceOnUse"
       gradientTransform="translate(0.00553585)" /><linearGradient
       inkscape:collect="always"
       xlink:href="#linearGradient29"
       id="linearGradient30"
       x1="45.999775"
       y1="33.043346"
       x2="51.649563"
       y2="33.043346"
       gradientUnits="userSpaceOnUse"
       gradientTransform="translate(0.13531499,-0.33392754)" /><linearGradient
       inkscape:collect="always"
       xlink:href="#linearGradient31"
       id="linearGradient32"
       x1="13.20317"
       y1="33.002613"
       x2="18.726299"
       y2="32.416988"
       gradientUnits="userSpaceOnUse"
       gradientTransform="translate(0,0.16607246)" /><linearGradient
       inkscape:collect="always"
       xlink:href="#linearGradient33"
       id="linearGradient34"
       x1="45.741913"
       y1="25.45701"
       x2="45.080456"
       y2="19.603106"
       gradientUnits="userSpaceOnUse"
       gradientTransform="translate(0.23478701,-0.49263169)" /><linearGradient
       inkscape:collect="always"
       xlink:href="#linearGradient35"
       id="linearGradient36"
       x1="32.843475"
       y1="46.557533"
       x2="50.768997"
       y2="42.621853"
       gradientUnits="userSpaceOnUse"
       gradientTransform="translate(8.1999999e-7,0.6200002)" /><linearGradient
       inkscape:collect="always"
       xlink:href="#linearGradient37"
       id="linearGradient38"
       x1="13.908765"
       y1="42.683479"
       x2="32.103138"
       y2="46.495411"
       gradientUnits="userSpaceOnUse"
       gradientTransform="translate(0.03437286,0.6200002)" /><linearGradient
       inkscape:collect="always"
       xlink:href="#linearGradient39"
       id="linearGradient40"
       x1="14.095854"
       y1="22.711763"
       x2="31.91605"
       y2="18.712744"
       gradientUnits="userSpaceOnUse"
       gradientTransform="translate(0.03437286,-0.49263157)" /><linearGradient
       inkscape:collect="always"
       xlink:href="#linearGradient41"
       id="linearGradient42"
       x1="2.9874642"
       y1="18.268408"
       x2="29.273422"
       y2="6.90277"
       gradientUnits="userSpaceOnUse" /><linearGradient
       inkscape:collect="always"
       xlink:href="#linearGradient43"
       id="linearGradient44"
       x1="32.360386"
       y1="5.2657447"
       x2="52.051468"
       y2="15.462077"
       gradientUnits="userSpaceOnUse" /><linearGradient
       inkscape:collect="always"
       xlink:href="#linearGradient45"
       id="linearGradient46"
       x1="54.71748"
       y1="32.066196"
       x2="63.978371"
       y2="32.206512"
       gradientUnits="userSpaceOnUse" /><linearGradient
       inkscape:collect="always"
       xlink:href="#linearGradient47"
       id="linearGradient48"
       x1="1.6778435"
       y1="48.202595"
       x2="7.196959"
       y2="32.206512"
       gradientUnits="userSpaceOnUse" /><linearGradient
       inkscape:collect="always"
       xlink:href="#linearGradient49"
       id="linearGradient50"
       x1="32.360386"
       y1="59.661774"
       x2="8.3662634"
       y2="46.752659"
       gradientUnits="userSpaceOnUse" /><linearGradient
       inkscape:collect="always"
       xlink:href="#linearGradient51"
       id="linearGradient52"
       x1="32.594246"
       y1="60.17627"
       x2="54.623936"
       y2="48.763859"
       gradientUnits="userSpaceOnUse" /></defs><g
     inkscape:groupmode="layer"
     id="layer3"
     inkscape:label="Warstwa 3"
     transform="matrix(0.99998415,0,0,1.0353355,-0.13435975,-1.9048598)"
     style="display:inline;opacity:1"><path
       d="m 51.784876,25.020739 c -2.913648,1.575433 -4.543276,2.460029 -5.300452,2.873209 -0.3494,0.190636 -0.241223,0.132367 -0.349333,0.192237 v 9.193237 l 5.649785,3.118673 z"
       style="display:inline;opacity:1;fill:url(#linearGradient30);fill-rule:evenodd;stroke-width:0"
       id="path132"
       inkscape:label="prawosrodek" /><path
       d="m 13.134362,25.020739 v 15.377356 l 5.649784,-3.118673 v -9.193237 c -0.108109,-0.05987 6.7e-5,-0.0016 -0.349332,-0.192237 -0.757177,-0.41318 -2.386805,-1.297776 -5.300452,-2.873209 z"
       style="display:inline;opacity:1;fill:url(#linearGradient32);fill-opacity:1;fill-rule:evenodd;stroke-width:0"
       id="path130"
       inkscape:label="lewosrodek" /><path
       d="m 38.267608,15.362035 -5.632731,3.009119 12.863814,6.712768 c 2.632226,-1.376541 4.486132,-2.34393 5.179529,-2.70216 0.582907,-0.30115 0.507259,-0.259117 0.528133,-0.268201 z"
       style="display:inline;opacity:1;fill:url(#linearGradient34);fill-opacity:1;fill-rule:evenodd;stroke-width:0"
       id="path129"
       inkscape:label="prwaogornysordek" /><path
       d="m 45.338835,40.474667 5.632731,3.009118 -12.863815,6.712769 c -2.632226,-1.376543 -4.486133,-2.343929 -5.179528,-2.702161 -0.582913,-0.301149 -0.507264,-0.2591 -0.528133,-0.2682 z"
       style="display:inline;opacity:1;fill:url(#linearGradient36);fill-opacity:1;fill-rule:evenodd;stroke-width:0"
       id="path135"
       inkscape:label="prawodolnysrodek" /><path
       d="m 19.267308,40.474667 -5.632732,3.009118 12.863815,6.712769 c 2.632226,-1.376543 4.486132,-2.343929 5.179529,-2.702161 0.582907,-0.301148 0.507259,-0.259116 0.528133,-0.2682 z"
       style="display:inline;opacity:1;fill:url(#linearGradient38);fill-opacity:1;fill-rule:evenodd;stroke-width:0"
       id="path134"
       inkscape:label="lewodolnysrodek" /><path
       d="m 26.498391,15.362035 -12.863815,6.712769 5.632732,3.009118 12.938745,-6.751526 c -0.02087,-0.0091 0.05477,0.03295 -0.528133,-0.2682 -0.693397,-0.358232 -2.547303,-1.325618 -5.179529,-2.702161 z"
       style="display:inline;opacity:1;fill:url(#linearGradient40);fill-opacity:1;fill-rule:evenodd;stroke-width:0"
       id="path128"
       inkscape:label="lewogornysrodek" /><path
       d="m 32.151003,1.8398479 -0.0031,0.0015 L 9.0507558,12.966898 0.64855153,17.014821 0.14573187,17.2559 l -0.0103355,0.005 -5.1677e-4,0.02745 v 0.02496 l 9.0667738,4.462199 0.025322,-0.01248 0.00465,-0.0025 0.03359,-0.01647 22.8857876,-11.391585 0.0041,-0.002 c 3.2e-5,-0.0036 4e-6,-0.0036 0,-0.005 2e-6,-3.7e-4 -5e-6,-9.84e-4 0,-0.0015 1.44e-4,-0.01449 3.58e-4,-0.01 5.17e-4,-0.02196 l -0.0047,-0.0025 0.0047,-0.002 c 0.0012,-0.08742 0.0019,-0.161278 0.0026,-0.16571 l -0.0072,-0.0035 0.0031,-0.0015 v -0.02146 -8.2840181 z"
       style="display:inline;fill:url(#linearGradient42);fill-rule:evenodd;stroke-width:0"
       id="path21" /><path
       d="m 32.154113,1.8413982 v 8.2842488 0.02119 l -0.0031,0.0016 0.0072,0.0036 c -6.59e-4,0.0044 -0.0014,0.07794 -0.0026,0.165365 -3.4e-5,0.0025 3.4e-5,0.0021 0,0.0046 -1.59e-4,0.01198 -3.73e-4,0.0072 -5.17e-4,0.0217 h 0.01344 l -0.01344,0.0067 c -2.6e-5,0.0029 -4.91e-4,0.0011 -5.16e-4,0.0041 l 22.892142,11.406022 0.180868,0.08992 0.0083,0.0041 8.898682,-4.466911 -0.001,-0.126607 -0.51263,-0.246497 -8.393286,-4.047815 z"
       style="display:inline;fill:url(#linearGradient44);fill-opacity:1;fill-rule:evenodd;stroke-width:0"
       id="path9"
       inkscape:label="prawygorny" /><path
       d="m 63.927335,48.250194 -8.91504,-4.607502 -0.0088,0.004 1.36e-4,-0.0212 0.0024,-21.950025 0.180401,0.09113 0.0083,0.0042 8.940644,-4.404825 -0.0033,30.989916 z"
       style="display:inline;fill:url(#linearGradient46);fill-opacity:1;fill-rule:evenodd;stroke-width:0"
       id="path126-1"
       inkscape:label="prawy" /><path
       d="m 0.13487865,17.313297 -5.1677e-4,0.04442 v 0.02995 l 0.0118858,0.006 0.003101,30.861547 v 4.99e-4 h 5.1678e-4 c 2.918e-4,1.69e-4 0.0167507,0.0087 0.0191206,0.01 0.00237,0.0013 0.0149778,0.0078 0.0191206,0.01 L 9.1727131,43.265925 v -0.02046 l -0.00258,-21.441016 v -0.01348 l 0.031523,-0.01547 z"
       style="display:inline;opacity:1;fill:url(#linearGradient48);fill-rule:evenodd;stroke-width:0"
       id="path20" /><path
       d="m 9.1727131,43.265925 -8.98460688,5.009742 c 0.0333226,0.01752 0.0947379,0.04987 0.15348144,0.08086 0.0508038,0.0268 0.0101241,0.0057 0.13281053,0.06988 L 9.0683251,52.544205 32.177358,63.61535 v 0.0065 l 0.06666,0.03194 0.0036,0.002 10e-4,-4.99e-4 v -8.527093 l -0.01137,0.0055 -0.0057,0.003 -0.04393,-0.02196 -0.01085,-0.0055 L 9.1727131,43.721129 v -0.007 z"
       style="display:inline;opacity:1;fill:url(#linearGradient50);fill-rule:evenodd;stroke-width:0"
       id="path12" /><path
       d="m 55.206292,43.655744 -22.891472,11.439002 -0.06615,0.03344 v 8.527093 l 0.03204,-0.01547 0.03411,-0.01647 22.945733,-11.096102 8.874018,-4.291996 -8.919494,-4.562524 -0.0088,0.004 z"
       style="display:inline;fill:url(#linearGradient52);fill-rule:evenodd;stroke-width:0"
       id="path10" /><path
       d="m 32.43973,21.357227 -0.03669,0.01947 -10.763337,5.729982 v 0.0584 l 10.702358,5.728486 h 0.06098 0.03669 z"
       style="display:inline;opacity:1;fill:url(#linearGradient25);fill-rule:evenodd;stroke-width:0"
       id="path15" /><path
       d="m 32.437474,21.355729 -0.0026,0.0015 v 11.536332 h 0.0047 0.02481 0.07287 l 10.702359,-5.728486 v -0.0584 l -10.775224,-5.736471 -0.02481,-0.01298 z"
       style="display:inline;opacity:1;fill:url(#linearGradient23);fill-rule:evenodd;stroke-width:0"
       id="path16" /><path
       d="m 43.234874,29.850092 v 8.41189 l -10.8,5.643066 v -8.217069 z"
       style="display:inline;opacity:1;fill:url(#linearGradient21);fill-opacity:1;fill-rule:evenodd;stroke-width:0"
       id="path18-1"
       inkscape:label="prawysrodek" /><path
       d="m 21.684703,29.850092 v 8.41189 l 10.8,5.643066 v -8.217069 z"
       style="display:inline;opacity:1;fill:url(#linearGradient19);fill-rule:evenodd;stroke-width:0"
       id="path18"
       inkscape:label="lewysrodek" /></g></svg>
