<svg width="66" height="85" viewBox="0 0 66 85" fill="none" xmlns="http://www.w3.org/2000/svg">
<g filter="url(#filter0_d_72_271)">
<path d="M36.0714 19.2154C36.0714 18.0302 35.4185 16.9454 34.3739 16.3829C33.3292 15.8204 32.0636 15.8807 31.0792 16.5436L21.4364 22.972C19.9498 23.9564 19.558 25.9451 20.5424 27.4317C21.5268 28.9183 23.5257 29.31 25.0022 28.3257L29.6429 25.222V54.5716H23.2143C21.4364 54.5716 20 56.0079 20 57.7858C20 59.5637 21.4364 61 23.2143 61H42.5C44.2779 61 45.7143 59.5637 45.7143 57.7858C45.7143 56.0079 44.2779 54.5716 42.5 54.5716H36.0714V19.2154Z" fill="#075985"/>
</g>
<defs>
<filter id="filter0_d_72_271" x="0" y="0" width="65.7142" height="85" filterUnits="userSpaceOnUse" color-interpolation-filters="sRGB">
<feFlood flood-opacity="0" result="BackgroundImageFix"/>
<feColorMatrix in="SourceAlpha" type="matrix" values="0 0 0 0 0 0 0 0 0 0 0 0 0 0 0 0 0 0 127 0" result="hardAlpha"/>
<feOffset dy="4"/>
<feGaussianBlur stdDeviation="10"/>
<feComposite in2="hardAlpha" operator="out"/>
<feColorMatrix type="matrix" values="0 0 0 0 0 0 0 0 0 0 0 0 0 0 0 0 0 0 0.25 0"/>
<feBlend mode="normal" in2="BackgroundImageFix" result="effect1_dropShadow_72_271"/>
<feBlend mode="normal" in="SourceGraphic" in2="effect1_dropShadow_72_271" result="shape"/>
</filter>
</defs>
</svg>
