<svg width="340" height="466" viewBox="0 0 340 466" fill="none" xmlns="http://www.w3.org/2000/svg">
<g filter="url(#filter0_d_72_275)">
<path d="M20 46.4286C20 29.5978 33.4062 16 50 16H275C287.375 16 298.438 23.7022 302.938 35.3982C307.438 47.0942 304.344 60.4067 295.25 68.8696L172.156 183.357H192.5C262.906 183.357 320 241.267 320 312.679C320 384.091 262.906 442 192.5 442H118.812C79.0625 442 42.6875 419.179 24.9688 383.14L23.1875 379.526C15.7812 364.502 21.7813 346.245 36.5938 338.733C51.4062 331.221 69.4062 337.307 76.8125 352.331L78.5938 355.944C86.1875 371.444 101.844 381.143 118.812 381.143H192.5C229.812 381.143 260 350.524 260 312.679C260 274.833 229.812 244.214 192.5 244.214H95C82.625 244.214 71.5625 236.512 67.0625 224.816C62.5625 213.12 65.6562 199.808 74.75 191.345L197.844 76.8571H50C33.4062 76.8571 20 63.2594 20 46.4286Z" fill="#075985" fill-opacity="0.1" shape-rendering="crispEdges"/>
</g>
<defs>
<filter id="filter0_d_72_275" x="0" y="0" width="340" height="466" filterUnits="userSpaceOnUse" color-interpolation-filters="sRGB">
<feFlood flood-opacity="0" result="BackgroundImageFix"/>
<feColorMatrix in="SourceAlpha" type="matrix" values="0 0 0 0 0 0 0 0 0 0 0 0 0 0 0 0 0 0 127 0" result="hardAlpha"/>
<feOffset dy="4"/>
<feGaussianBlur stdDeviation="10"/>
<feComposite in2="hardAlpha" operator="out"/>
<feColorMatrix type="matrix" values="0 0 0 0 0 0 0 0 0 0 0 0 0 0 0 0 0 0 0.25 0"/>
<feBlend mode="normal" in2="BackgroundImageFix" result="effect1_dropShadow_72_275"/>
<feBlend mode="normal" in="SourceGraphic" in2="effect1_dropShadow_72_275" result="shape"/>
</filter>
</defs>
</svg>
