<svg width="73" height="85" viewBox="0 0 73 85" fill="none" xmlns="http://www.w3.org/2000/svg">
<g id="Vector" filter="url(#filter0_d_72_273)">
<path d="M34.358 22.4286C32.1989 22.4286 30.1201 23.2824 28.5937 24.8192L25.4906 27.9129C24.2353 29.1685 22.1968 29.1685 20.9415 27.9129C19.6862 26.6574 19.6862 24.6183 20.9415 23.3627L24.0445 20.269C26.7861 17.5368 30.4917 16 34.358 16C42.4018 16 48.9293 22.529 48.9293 30.5748C48.9293 34.442 47.3929 38.1484 44.6614 40.8806L30.9838 54.5714H48.9293C50.7068 54.5714 52.1429 56.0078 52.1429 57.7857C52.1429 59.5636 50.7068 61 48.9293 61H23.2211C21.9256 61 20.7507 60.2165 20.2485 59.0112C19.7464 57.8058 20.0276 56.4297 20.9415 55.5056L40.1122 36.3404C41.6386 34.8136 42.5023 32.7344 42.5023 30.5748C42.5023 26.0748 38.8569 22.4286 34.358 22.4286Z" fill="#075985"/>
</g>
<defs>
<filter id="filter0_d_72_273" x="0" y="0" width="72.1428" height="85" filterUnits="userSpaceOnUse" color-interpolation-filters="sRGB">
<feFlood flood-opacity="0" result="BackgroundImageFix"/>
<feColorMatrix in="SourceAlpha" type="matrix" values="0 0 0 0 0 0 0 0 0 0 0 0 0 0 0 0 0 0 127 0" result="hardAlpha"/>
<feOffset dy="4"/>
<feGaussianBlur stdDeviation="10"/>
<feComposite in2="hardAlpha" operator="out"/>
<feColorMatrix type="matrix" values="0 0 0 0 0 0 0 0 0 0 0 0 0 0 0 0 0 0 0.25 0"/>
<feBlend mode="normal" in2="BackgroundImageFix" result="effect1_dropShadow_72_273"/>
<feBlend mode="normal" in="SourceGraphic" in2="effect1_dropShadow_72_273" result="shape"/>
</filter>
</defs>
</svg>
