<svg width="72" height="85" viewBox="0 0 72 85" fill="none" xmlns="http://www.w3.org/2000/svg">
<g id="Vector" filter="url(#filter0_d_72_275)">
<path d="M20 19.2143C20 17.4364 21.4162 16 23.169 16H46.9366C48.2438 16 49.4124 16.8136 49.8878 18.0491C50.3631 19.2846 50.0363 20.6908 49.0757 21.5848L36.0728 33.6786H38.2218C45.6591 33.6786 51.6901 39.7958 51.6901 47.3393C51.6901 54.8828 45.6591 61 38.2218 61H30.4379C26.239 61 22.3966 58.5893 20.5249 54.7824L20.3367 54.4007C19.5544 52.8136 20.1882 50.885 21.7529 50.0915C23.3176 49.298 25.219 49.9408 26.0013 51.5279L26.1895 51.9096C26.9916 53.5469 28.6455 54.5714 30.4379 54.5714H38.2218C42.1633 54.5714 45.3521 51.3371 45.3521 47.3393C45.3521 43.3415 42.1633 40.1071 38.2218 40.1071H27.9225C26.6153 40.1071 25.4467 39.2935 24.9714 38.058C24.496 36.8225 24.8228 35.4163 25.7835 34.5223L38.7863 22.4286H23.169C21.4162 22.4286 20 20.9922 20 19.2143Z" fill="#075985"/>
</g>
<defs>
<filter id="filter0_d_72_275" x="0" y="0" width="71.6902" height="85" filterUnits="userSpaceOnUse" color-interpolation-filters="sRGB">
<feFlood flood-opacity="0" result="BackgroundImageFix"/>
<feColorMatrix in="SourceAlpha" type="matrix" values="0 0 0 0 0 0 0 0 0 0 0 0 0 0 0 0 0 0 127 0" result="hardAlpha"/>
<feOffset dy="4"/>
<feGaussianBlur stdDeviation="10"/>
<feComposite in2="hardAlpha" operator="out"/>
<feColorMatrix type="matrix" values="0 0 0 0 0 0 0 0 0 0 0 0 0 0 0 0 0 0 0.25 0"/>
<feBlend mode="normal" in2="BackgroundImageFix" result="effect1_dropShadow_72_275"/>
<feBlend mode="normal" in="SourceGraphic" in2="effect1_dropShadow_72_275" result="shape"/>
</filter>
</defs>
</svg>
