<svg width="290" height="478" viewBox="0 0 290 478" fill="none" xmlns="http://www.w3.org/2000/svg">
<g filter="url(#filter0_d_72_271)">
<path d="M176.25 47.261C176.25 35.7379 169.902 25.1913 159.746 19.7227C149.59 14.2541 137.285 14.84 127.715 21.2852L33.9648 83.7835C19.5117 93.3535 15.7031 112.689 25.2734 127.142C34.8438 141.594 54.2773 145.403 68.6328 135.833L113.75 105.658V391.002H51.25C33.9648 391.002 20 404.966 20 422.251C20 439.536 33.9648 453.5 51.25 453.5H238.75C256.035 453.5 270 439.536 270 422.251C270 404.966 256.035 391.002 238.75 391.002H176.25V47.261Z" fill="#075985" fill-opacity="0.1" shape-rendering="crispEdges"/>
</g>
<defs>
<filter id="filter0_d_72_271" x="0" y="0" width="290" height="477.5" filterUnits="userSpaceOnUse" color-interpolation-filters="sRGB">
<feFlood flood-opacity="0" result="BackgroundImageFix"/>
<feColorMatrix in="SourceAlpha" type="matrix" values="0 0 0 0 0 0 0 0 0 0 0 0 0 0 0 0 0 0 127 0" result="hardAlpha"/>
<feOffset dy="4"/>
<feGaussianBlur stdDeviation="10"/>
<feComposite in2="hardAlpha" operator="out"/>
<feColorMatrix type="matrix" values="0 0 0 0 0 0 0 0 0 0 0 0 0 0 0 0 0 0 0.25 0"/>
<feBlend mode="normal" in2="BackgroundImageFix" result="effect1_dropShadow_72_271"/>
<feBlend mode="normal" in="SourceGraphic" in2="effect1_dropShadow_72_271" result="shape"/>
</filter>
</defs>
</svg>
