<svg width="281" height="281" viewBox="0 0 281 281" fill="none" xmlns="http://www.w3.org/2000/svg">
<path fill-rule="evenodd" clip-rule="evenodd" d="M140.5 281C218.096 281 281 218.096 281 140.5C281 62.904 218.096 0 140.5 0C62.904 0 0 62.904 0 140.5C0 218.096 62.904 281 140.5 281ZM205.606 117.794C212.464 110.935 212.464 99.8151 205.606 92.9564C198.748 86.0979 187.627 86.0979 180.769 92.9564L122.938 150.788L100.231 128.081C93.3724 121.223 82.2526 121.223 75.3939 128.081C68.5354 134.94 68.5354 146.06 75.3939 152.918L110.519 188.043C117.378 194.902 128.497 194.902 135.356 188.043L205.606 117.794Z" fill="#3ECE27"/>
</svg>
