<svg width="24" height="24" viewBox="0 0 24 24" fill="none" xmlns="http://www.w3.org/2000/svg">
<path id="Vector" fill-rule="evenodd" clip-rule="evenodd" d="M12 0C8.8174 0 5.76516 1.26428 3.51472 3.51472C1.26428 5.76516 0 8.8174 0 12C0 15.1826 1.26428 18.2348 3.51472 20.4853C5.76516 22.7357 8.8174 24 12 24C15.1826 24 18.2348 22.7357 20.4853 20.4853C22.7357 18.2348 24 15.1826 24 12C24 8.8174 22.7357 5.76516 20.4853 3.51472C18.2348 1.26428 15.1826 0 12 0ZM12 22.1538C9.30703 22.1538 6.72436 21.0841 4.82015 19.1799C2.91593 17.2756 1.84615 14.693 1.84615 12C1.84615 9.30703 2.91593 6.72436 4.82015 4.82015C6.72436 2.91593 9.30703 1.84615 12 1.84615C14.693 1.84615 17.2756 2.91593 19.1799 4.82015C21.0841 6.72436 22.1538 9.30703 22.1538 12C22.1538 14.693 21.0841 17.2756 19.1799 19.1799C17.2756 21.0841 14.693 22.1538 12 22.1538ZM14.8615 6.60923C14.5426 6.27711 14.1594 6.01331 13.7354 5.83385C13.2018 5.62022 12.6298 5.51964 12.0554 5.53846C11.4979 5.52834 10.9444 5.63525 10.4308 5.85231C9.98954 6.03692 9.6 6.32123 9.28615 6.68308C8.98042 7.01561 8.74217 7.40434 8.58462 7.82769C8.43814 8.25773 8.34513 8.70417 8.30769 9.15692H10.5785C10.5889 8.86391 10.6822 8.57987 10.8476 8.33774C11.0129 8.09561 11.2435 7.90532 11.5126 7.78892C11.691 7.71865 11.8824 7.68779 12.0738 7.69846C12.239 7.67222 12.4072 7.67222 12.5723 7.69846C12.724 7.75583 12.8622 7.84381 12.9785 7.95692C13.1067 8.06791 13.2078 8.20686 13.2738 8.36308C13.3495 8.5378 13.3872 8.72656 13.3846 8.91692C13.3846 9.23631 13.3163 9.55015 13.1815 9.84C13.0475 10.1407 12.8803 10.4256 12.6831 10.6892L12.0369 11.4646C11.8154 11.7046 11.5938 11.9631 11.3908 12.2215C11.1939 12.4788 11.0266 12.7575 10.8923 13.0523C10.7642 13.3429 10.7012 13.6579 10.7077 13.9754V15.1938H12.9231V14.2892C12.9293 14.0185 12.9989 13.7529 13.1262 13.5138C13.2779 13.2481 13.4507 12.995 13.6431 12.7569L14.3077 11.9446C14.5496 11.6651 14.7717 11.369 14.9723 11.0585C15.1845 10.7418 15.358 10.4009 15.4892 10.0431C15.6239 9.66371 15.6926 9.26409 15.6923 8.86154C15.6956 8.44213 15.6333 8.02478 15.5077 7.62462C15.3683 7.24341 15.1478 6.89698 14.8615 6.60923ZM10.7077 16.3015H12.8677V18.4615H10.7077V16.3015Z" fill="#CBD5E1"/>
</svg>
